<svg width="20" height="20" viewBox="0 0 20 20" fill="none" xmlns="http://www.w3.org/2000/svg">
<g clip-path="url(#clip0_1248_207)">
<rect width="20" height="20" fill="white"/>
<g clip-path="url(#clip1_1248_207)">
<rect width="18.4002" height="18.4002" transform="translate(0.766602 0.766602)" fill="white"/>
<path d="M18.942 17.8579L14.3657 13.2817C15.6128 11.7564 16.226 9.81023 16.0784 7.84561C15.9307 5.88098 15.0337 4.04825 13.5727 2.7265C12.1117 1.40475 10.1985 0.6951 8.229 0.744345C6.25946 0.79359 4.38419 1.59796 2.99107 2.99107C1.59796 4.38419 0.79359 6.25946 0.744345 8.229C0.6951 10.1985 1.40475 12.1117 2.7265 13.5727C4.04825 15.0337 5.88098 15.9307 7.84561 16.0784C9.81023 16.226 11.7564 15.6128 13.2817 14.3657L17.8579 18.942C18.0025 19.0817 18.1962 19.1589 18.3972 19.1572C18.5982 19.1554 18.7905 19.0748 18.9327 18.9327C19.0748 18.7905 19.1554 18.5982 19.1572 18.3972C19.1589 18.1962 19.0817 18.0025 18.942 17.8579ZM8.43321 14.5666C7.22014 14.5666 6.03432 14.2069 5.02569 13.5329C4.01706 12.859 3.23093 11.9011 2.76671 10.7804C2.30248 9.65963 2.18102 8.42641 2.41768 7.23665C2.65434 6.04689 3.23849 4.95403 4.09626 4.09626C4.95403 3.23849 6.04689 2.65434 7.23665 2.41768C8.42641 2.18102 9.65963 2.30248 10.7804 2.76671C11.9011 3.23093 12.859 4.01706 13.5329 5.02569C14.2069 6.03432 14.5666 7.22014 14.5666 8.43321C14.5648 10.0593 13.918 11.6183 12.7682 12.7682C11.6183 13.918 10.0593 14.5648 8.43321 14.5666Z" fill="#292D32"/>
</g>
</g>
<defs>
<clipPath id="clip0_1248_207">
<rect width="20" height="20" fill="white"/>
</clipPath>
<clipPath id="clip1_1248_207">
<rect width="18.4002" height="18.4002" fill="white" transform="translate(0.766602 0.766602)"/>
</clipPath>
</defs>
</svg>
